<svg width="54" height="54" viewBox="0 0 54 54" fill="none" xmlns="http://www.w3.org/2000/svg">
<path d="M54 33.499L47.5022 20.5028L41.0045 33.499H45.381C42.626 42.0997 34.5686 48.3513 25.0624 48.3513C13.2904 48.3513 3.71192 38.7731 3.71192 27.0009C3.71192 15.2289 13.2904 5.65042 25.0624 5.65042C34.1329 5.65042 41.8822 11.346 44.9679 19.3428L47.1016 15.0745C42.8563 7.25672 34.5706 1.9375 25.064 1.9375C11.2441 1.93717 0 13.1806 0 27.0009C0 40.8201 11.2441 52.0646 25.0637 52.0646C36.6352 52.0646 46.3787 44.1758 49.25 33.4993H54V33.499Z" fill="#401693"/>
<path d="M11.7578 32.0017H14.105L14.8173 29.4342H17.6817L18.4544 32.0017H20.888L17.7861 21.998H14.8173L11.7578 32.0017ZM15.7365 25.6195C15.8998 25.04 16.0482 24.2829 16.197 23.6902H16.2262C16.3749 24.2829 16.5535 25.0274 16.7321 25.6195L17.3557 27.7444H15.144L15.7365 25.6195Z" fill="#401693"/>
<path d="M27.0821 23.7653C28.1792 23.7653 28.8617 23.9584 29.4111 24.194L29.8869 22.383C29.3968 22.146 28.4018 21.8926 27.1113 21.8926C23.8308 21.8926 21.4124 23.7914 21.3948 27.1174C21.3809 28.5865 21.8852 29.8913 22.8063 30.7547C23.7267 31.6454 25.0471 32.1053 26.8741 32.1053C28.1928 32.1053 29.5164 31.7789 30.2122 31.5417V26.2725H26.4877V28.0388H28.0334V30.1305C27.8538 30.2213 27.4377 30.2793 26.9185 30.2793C25.0617 30.2793 23.7718 29.061 23.7718 26.9978C23.7718 24.8328 25.1952 23.7653 27.0821 23.7653Z" fill="#401693"/>
<path d="M38.1613 23.8548V22H31.9866V32.002H38.3697V30.1488H34.2579V27.7738H37.94V25.9316H34.2579V23.8548H38.1613Z" fill="#401693"/>
</svg>
