<svg width="120" height="120" viewBox="0 0 120 120" fill="none" xmlns="http://www.w3.org/2000/svg">
<path d="M3.7499 37.5001H116.25C118.32 37.5001 120 35.8199 120 33.7501C120 31.6801 118.32 30.0002 116.25 30.0002H3.7499C1.67982 30.0002 0 31.6804 0 33.7501C0 35.8199 1.68013 37.5001 3.7499 37.5001Z" fill="black"/>
<path d="M116.25 83H3.7499C1.67982 83 0 84.6801 0 86.7499C0 88.8197 1.68013 90.4998 3.7499 90.4998H116.25C118.32 90.4998 120 88.8197 120 86.7499C120 84.6801 118.32 83 116.25 83Z" fill="black"/>
<path d="M78.7498 56H3.7499C1.67982 56 0 57.6801 0 59.7499C0 61.82 1.68013 63.4998 3.7499 63.4998H78.7498C80.8199 63.4998 82.4997 61.8197 82.4997 59.7499C82.5 57.6798 80.8199 56 78.7498 56Z" fill="black"/>
</svg>
