<svg width="42" height="42" viewBox="0 0 42 42" fill="none" xmlns="http://www.w3.org/2000/svg">
<path d="M41.835 22.9362V37.4485C41.835 39.9585 39.792 42 37.282 42H4.66242C2.15165 42 0.108887 39.9585 0.108887 37.4485V4.86433C0.108887 2.3546 2.15165 0.312619 4.66242 0.312619H19.2138C18.4304 1.11629 17.9098 2.17686 17.7955 3.35512H4.6619C3.82912 3.35512 3.15165 4.03216 3.15165 4.86433V37.4485C3.15165 38.2807 3.82921 38.9578 4.6619 38.9578H37.2816C38.1143 38.9578 38.7919 38.2807 38.7919 37.4485V24.3524C39.937 24.2426 40.9998 23.75 41.835 22.9362ZM24.1522 4.56457H34.0997L17.9981 20.6666C17.1068 21.5574 17.1068 23.003 17.9981 23.8938C18.8891 24.7851 20.3342 24.7851 21.2252 23.8943L37.3268 7.79219V17.7402C37.3268 19.0006 38.3485 20.0222 39.6091 20.0222C40.239 20.0222 40.8097 19.7676 41.2227 19.3541C41.6357 18.94 41.891 18.3703 41.891 17.7402V2.28194C41.8911 1.02155 40.8699 0 39.6091 0H24.1522C22.892 0 21.8702 1.02155 21.8702 2.28246C21.8697 3.54285 22.892 4.56457 24.1522 4.56457Z" fill="#401693"/>
</svg>
