<svg width="34" height="35" viewBox="0 0 34 35" fill="none" xmlns="http://www.w3.org/2000/svg">
<path d="M20.2987 12.835V6.41256C20.2987 5.13505 19.7912 3.90986 18.8878 3.00653C17.9845 2.10319 16.7593 1.5957 15.4818 1.5957L9.05934 16.0463V33.7081H27.1707C27.9452 33.7168 28.6967 33.4454 29.2868 32.9438C29.8769 32.4422 30.2658 31.7442 30.382 30.9785L32.5977 16.528C32.6676 16.0677 32.6365 15.5978 32.5067 15.1507C32.3769 14.7037 32.1515 14.2902 31.8461 13.9389C31.5406 13.5876 31.1624 13.307 30.7377 13.1164C30.313 12.9258 29.852 12.8298 29.3865 12.835H20.2987ZM9.05934 33.7081H4.24249C3.39081 33.7081 2.57402 33.3697 1.9718 32.7675C1.36958 32.1653 1.03125 31.3485 1.03125 30.4968V19.2575C1.03125 18.4058 1.36958 17.589 1.9718 16.9868C2.57402 16.3846 3.39081 16.0463 4.24249 16.0463H9.05934" fill="#401693"/>
<path d="M9.05934 33.7081H4.24249C3.39081 33.7081 2.57402 33.3697 1.9718 32.7675C1.36958 32.1653 1.03125 31.3485 1.03125 30.4968V19.2575C1.03125 18.4058 1.36958 17.589 1.9718 16.9868C2.57402 16.3846 3.39081 16.0463 4.24249 16.0463H9.05934M20.2987 12.835V6.41256C20.2987 5.13505 19.7912 3.90986 18.8878 3.00653C17.9845 2.10319 16.7593 1.5957 15.4818 1.5957L9.05934 16.0463V33.7081H27.1707C27.9452 33.7168 28.6967 33.4454 29.2868 32.9438C29.8769 32.4422 30.2658 31.7442 30.382 30.9785L32.5977 16.528C32.6676 16.0677 32.6365 15.5978 32.5067 15.1507C32.3769 14.7037 32.1515 14.2902 31.8461 13.9389C31.5406 13.5876 31.1624 13.307 30.7377 13.1164C30.313 12.9258 29.852 12.8298 29.3865 12.835H20.2987Z" stroke="white" stroke-width="2" stroke-linecap="round" stroke-linejoin="round"/>
</svg>
