<svg width="47" height="52" viewBox="0 0 47 52" fill="none" xmlns="http://www.w3.org/2000/svg">
<path d="M37.9983 15.7993C37.9983 11.8743 36.439 8.11002 33.6636 5.33461C30.8882 2.55921 27.124 1 23.199 1C19.2739 1 15.5097 2.55921 12.7343 5.33461C9.95886 8.11002 8.39965 11.8743 8.39965 15.7993C8.39965 33.0652 1 37.9983 1 37.9983H45.3979C45.3979 37.9983 37.9983 33.0652 37.9983 15.7993Z" stroke="black" stroke-width="2" stroke-linecap="round" stroke-linejoin="round"/>
<path d="M27.4664 47.8652C27.0327 48.6128 26.4103 49.2333 25.6614 49.6647C24.9125 50.096 24.0635 50.323 23.1993 50.323C22.335 50.323 21.486 50.096 20.7371 49.6647C19.9882 49.2333 19.3658 48.6128 18.9321 47.8652" stroke="black" stroke-width="2" stroke-linecap="round" stroke-linejoin="round"/>
<circle cx="35.5884" cy="6.32227" r="5" fill="#F44D19"/>
</svg>
