<svg width="46" height="46" viewBox="0 0 46 46" fill="none" xmlns="http://www.w3.org/2000/svg">
<path d="M23 0C10.3177 0 0 10.3177 0 23C0 35.6823 10.3177 46 23 46C35.6823 46 46 35.6823 46 23C46 10.3177 35.6823 0 23 0ZM23 42.4796C12.2589 42.4796 3.52041 33.7411 3.52041 23C3.52041 12.2589 12.2589 3.52041 23 3.52041C33.7411 3.52041 42.4796 12.2589 42.4796 23C42.4796 33.7411 33.7411 42.4796 23 42.4796Z" fill="#401693"/>
<path d="M24.7606 21.24V7.04102H21.2402V24.7604H38.9596V21.24H24.7606Z" fill="#401693"/>
<path d="M24.7606 35.4395H21.2402V38.9599H24.7606V35.4395Z" fill="#401693"/>
<path d="M27.6939 34.6525L29.4541 37.7012L32.5028 35.941L30.7426 32.8924L27.6939 34.6525Z" fill="#401693"/>
<path d="M32.8932 30.7437L35.9419 32.5039L37.7021 29.4553L34.6534 27.6951L32.8932 30.7437Z" fill="#401693"/>
<path d="M13.4957 10.0587L15.2559 13.1074L18.3045 11.3472L16.5443 8.29846L13.4957 10.0587Z" fill="#401693"/>
<path d="M8.29898 16.5445L11.3477 18.3047L13.1079 15.2561L10.0592 13.4959L8.29898 16.5445Z" fill="#401693"/>
<path d="M10.5614 21.2402H7.04102V24.7606H10.5614V21.2402Z" fill="#401693"/>
<path d="M8.2979 29.4553L10.0581 32.5039L13.1068 30.7437L11.3466 27.6951L8.2979 29.4553Z" fill="#401693"/>
<path d="M13.4972 35.941L16.5459 37.7012L18.3061 34.6525L15.2574 32.8924L13.4972 35.941Z" fill="#401693"/>
</svg>
